{"title":"Havana Brown - Better Not Said (2014.Pop)","uid":11081343,"size":90096041,"categoryP":"video","categoryS":"music_videos","magnet":"?xt=urn:btih:5762e69e5d52c6a4c4e168880d52e8a048e3c4c3&amp;dn=Havana+Brown+-+Better+Not+Said+%282014.Pop%29&amp;tr=udp%3A%2F%2Ftracker.openbittorrent.com%3A80&amp;tr=udp%3A%2F%2Fopen.demonii.com%3A1337&amp;tr=udp%3A%2F%2Ftracker.coppersurfer.tk%3A6969&amp;tr=udp%3A%2F%2Fexodus.desync.com%3A6969","seeders":0,"leechers":0,"uploader":"MeRaDil","files":-1,"time":1411411718,"description":"HAVANA BROWN - BETTER NOT SAID\n\n\n\nMPEG4 PROMO MUSIC VID\n\n &lt;a href=&quot;\nhttp://gifyu.com/images/havana1.png&quot; rel=&quot;nofollow&quot; target=&quot;_NEW&quot;&gt;\nhttp://gifyu.com/images/havana1.png&lt;/a&gt;\n &lt;a href=&quot;\nhttp://gifyu.com/images/HavanaBrown.png&quot; rel=&quot;nofollow&quot; target=&quot;_NEW&quot;&gt;\nhttp://gifyu.com/images/HavanaBrown.png&lt;/a&gt;\n\n\nGeneral\nFormat                                   : MPEG-4\nFormat profile                           : Base Media\nCodec ID                                 : isom\nFile size                                : 85.9 MiB\nDuration                                 : 3mn 41s\nOverall bit rate                         : 3 255 Kbps\nMovie name                               : Better Not Said\nMovie name/More                          : Havana Brown\nPerformer                                : Havana Brown\nGenre                                    : EDM\nContentType                              : Music Video\nRecorded date                            : 2014\nCopyright                                : Havana Brown\nCover                                    : Yes\nMake                                     : MeRaDil\noday                                     : 18-09-2014  Australia\naurl                                     : www.havanabrownmusic.com\nrelease date                             : Australia . september 18 . 2014\nPart_ID                                  : Better Not Said\n\nVideo\nID                                       : 1\nFormat                                   : AVC\nFormat/Info                              : Advanced Video Codec\nFormat profile                           : &lt;a class=&quot;__cf_email__&quot; href=&quot;/cdn-cgi/l/email-protection&quot; data-cfemail=&quot;fcb4959b94bcb0c8d2cc&quot;&gt;[email&amp;#160;protected]&lt;/a&gt;&lt;script data-cfhash='f9e31' type=&quot;text/javascript&quot;&gt;\n/* &lt;![CDATA[ */!function(){try{var t=&quot;currentScript&quot;in document?document.currentScript:function(){for(var t=document.getElementsByTagName(&quot;script&quot;),e=t.length;e--;)if(t[e].getAttribute(&quot;data-cfhash&quot;))return t[e]}();if(t&amp;&amp;t.previousSibling){var e,r,n,i,c=t.previousSibling,a=c.getAttribute(&quot;data-cfemail&quot;);if(a){for(e=&quot;&quot;,r=parseInt(a.substr(0,2),16),n=2;a.length-n;n+=2)i=parseInt(a.substr(n,2),16)^r,e+=String.fromCharCode(i);e=document.createTextNode(e),c.parentNode.replaceChild(e,c)}t.parentNode.removeChild(t);}}catch(u){}}()/* ]]&gt; */&lt;/script&gt;\nFormat settings, CABAC                   : Yes\nFormat settings, ReFrames                : 2 frames\nCodec ID                                 : avc1\nCodec ID/Info                            : Advanced Video Coding\nDuration                                 : 3mn 41s\nBit rate                                 : 2 992 Kbps\nWidth                                    : 1 920 pixels\nHeight                                   : 1 080 pixels\nDisplay aspect ratio                     : 16:9\nFrame rate mode                          : Constant\nFrame rate                               : 25.000 fps\nColor space                              : YUV\nChroma subsampling                       : 4:2:0\nBit depth                                : 8 bits\nScan type                                : Progressive\nBits/(Pixel*Frame)                       : 0.058\nStream size                              : 79.0 MiB (92%)\n\nAudio\nID                                       : 2\nFormat                                   : AAC\nFormat/Info                              : Advanced Audio Codec\nFormat profile                           : LC\nCodec ID                                 : 40\nDuration                                 : 3mn 41s\nBit rate mode                            : Constant\nBit rate                                 : 256 Kbps\nChannel(s)                               : 2 channels\nChannel positions                        : Front: L R\nSampling rate                            : 44.1 KHz\nCompression mode                         : Lossy\nStream size                              : 6.76 MiB (8%)\n &lt;a href=&quot;\nhttps://thepiratebay.se/user/MeRaDil&quot; rel=&quot;nofollow&quot; target=&quot;_NEW&quot;&gt;\nhttps://thepiratebay.se/user/MeRaDil&lt;/a&gt;\n\n:)\n","torrent":{"xt":"urn:btih:5762e69e5d52c6a4c4e168880d52e8a048e3c4c3","amp;dn":"Havana+Brown+-+Better+Not+Said+%282014.Pop%29","amp;tr":["udp%3A%2F%2Ftracker.openbittorrent.com%3A80","udp%3A%2F%2Fopen.demonii.com%3A1337","udp%3A%2F%2Ftracker.coppersurfer.tk%3A6969","udp%3A%2F%2Fexodus.desync.com%3A6969"],"infoHash":"5762e69e5d52c6a4c4e168880d52e8a048e3c4c3","infoHashBuffer":{"type":"Buffer","data":[87,98,230,158,93,82,198,164,196,225,104,136,13,82,232,160,72,227,196,195]},"announce":[],"urlList":[]}}